
        <svg xmlns="http://www.w3.org/2000/svg" xmlns:xlink="http://www.w3.org/1999/xlink" version="1.1" width="3187.5" height="1125.0000788421216" viewBox="0 0 3187.5 1125.0000788421216">
			
			<g transform="scale(9.375) translate(10, 10)">
				<defs id="SvgjsDefs1419"><linearGradient id="SvgjsLinearGradient1426"><stop id="SvgjsStop1427" stop-color="#8f5e25" offset="0"/><stop id="SvgjsStop1428" stop-color="#fbf4a1" offset="0.5"/><stop id="SvgjsStop1429" stop-color="#8f5e25" offset="1"/></linearGradient><linearGradient id="SvgjsLinearGradient1430"><stop id="SvgjsStop1431" stop-color="#8f5e25" offset="0"/><stop id="SvgjsStop1432" stop-color="#fbf4a1" offset="0.5"/><stop id="SvgjsStop1433" stop-color="#8f5e25" offset="1"/></linearGradient><linearGradient id="SvgjsLinearGradient1434"><stop id="SvgjsStop1435" stop-color="#8f5e25" offset="0"/><stop id="SvgjsStop1436" stop-color="#fbf4a1" offset="0.5"/><stop id="SvgjsStop1437" stop-color="#8f5e25" offset="1"/></linearGradient></defs><g id="SvgjsG1420" featureKey="V4V1qj-0" transform="matrix(35.273368132073294,0,0,35.273368132073294,-38.16578071949764,-38.20105573595568)" fill="#fff"><g xmlns="http://www.w3.org/2000/svg"><path d="M1.364,2.557l0.494-0.18v1.541h0.009H2.21V1.329l0.724,0.434v2.155h0.105h0.048h0.059V3.164l0.527,0.377   v0.377h0.244V3.232L3.666,3.07V2.294L3.146,1.976V1.655L2.221,1.089V1.083L2.215,1.086L2.21,1.083v0.005L1.712,1.29v0.831   l-0.63,0.256v1.541h0.282V2.557z M3.146,2.229l0.356,0.215v0.519L3.146,2.73V2.229z"/></g></g><g id="SvgjsG1421" featureKey="nameFeature-0" transform="matrix(1.7374770209013692,0,0,1.7374770209013692,117.98452816361278,17.28940693378891)" fill="#fff"><path d="M11.62 19.48 c-0.4 0.48 -0.86 0.64 -1.38 0.64 c-0.92 0 -1.44 -0.86 -1.44 -1.96 c0.06 -2.04 0.44 -4.4 -2.44 -4.4 l-1.66 0 l-0.8 4.88 c-0.14 0.78 -0.06 0.86 0.58 0.86 c-0.22 0.42 -0.72 0.64 -1.12 0.64 c-0.24 0 -0.46 -0.04 -0.62 -0.12 c-0.2 0.08 -0.42 0.12 -0.66 0.12 c-0.4 0 -0.84 -0.22 -0.92 -0.64 c0.64 0 0.74 -0.08 0.86 -0.86 l1.56 -10.1 c0.14 -0.78 0.06 -0.86 -0.58 -0.86 c0.22 -0.42 0.72 -0.64 1.12 -0.64 c0.24 0 0.5 0.08 0.66 0.22 c0.36 -0.22 0.16 -0.22 2.6 -0.22 c3.36 -0.02 4.98 0.94 4.98 2.78 c0 1.98 -1.44 3.24 -3.36 3.62 c1.52 0.4 1.92 1.66 1.76 4.36 c-0.08 1.22 0.02 1.68 0.86 1.68 z M4.78 13.16 l1.4 0 c2.08 0 3.74 -1.38 3.74 -3.3 c0.02 -1.26 -0.78 -2.22 -2.7 -2.22 c-1.08 0 -1.68 0.54 -1.84 1.6 z M18.396 20.14 c-0.4 0 -0.84 -0.22 -0.92 -0.64 c0.64 0 0.74 -0.08 0.86 -0.86 l1.56 -10.1 c0.14 -0.78 0.06 -0.86 -0.58 -0.86 c0.22 -0.42 0.72 -0.64 1.12 -0.64 c0.24 0 0.5 0.08 0.66 0.22 c0.36 -0.22 1.08 -0.22 3.52 -0.22 l1.12 0 c1.28 0 2.4 1 1.96 2.4 c-0.38 1.06 -1.5 1.42 -2.18 0.68 c0.96 -1.94 -0.3 -2.48 -1.7 -2.48 c-1.46 0 -1.9 0.14 -2.12 1.58 l-0.54 3.54 c1.1 -0.98 3.08 -0.84 3.08 0.38 c0 0.82 -0.94 1.26 -1.44 0.9 c0.16 -1 -0.9 -1.26 -1.78 -0.42 l-0.68 4.34 c-0.22 1.44 0.16 1.58 1.62 1.58 c1.94 0 3.38 -0.54 3.04 -2.48 c0.9 -0.74 1.92 -0.38 1.96 0.68 c0 1.4 -1.44 2.4 -2.72 2.4 l-1.66 0 c-2.44 0 -3.16 0 -3.46 -0.22 c-0.2 0.14 -0.48 0.22 -0.72 0.22 z M34.532000000000004 19.92 c-0.2 0.14 -0.48 0.22 -0.72 0.22 c-0.4 0 -0.84 -0.22 -0.92 -0.64 c0.64 0 0.74 -0.08 0.86 -0.86 l1.62 -10.4 c0.14 -0.78 0.06 -0.86 -0.58 -0.86 c0.22 -0.42 0.72 -0.64 1.12 -0.64 c0.24 0 0.46 0.04 0.62 0.12 c0.2 -0.08 0.42 -0.12 0.66 -0.12 c0.4 0 0.84 0.22 0.92 0.64 c-0.64 0 -0.74 0.08 -0.86 0.86 l-1.5 9.72 c-0.24 1.44 0.16 1.58 1.62 1.58 c1.94 0 3.38 -0.54 3.04 -2.48 c0.9 -0.74 1.92 -0.38 1.96 0.68 c0 1.4 -1.44 2.4 -2.72 2.4 l-1.66 0 c-2.44 0 -3.16 0 -3.46 -0.22 z M51.668000000000006 8.24 l-1.62 10.4 c-0.14 0.78 -0.06 0.86 0.58 0.86 c-0.22 0.42 -0.72 0.64 -1.12 0.64 c-0.24 0 -0.46 -0.04 -0.62 -0.12 c-0.2 0.08 -0.42 0.12 -0.66 0.12 c-0.4 0 -0.84 -0.22 -0.92 -0.64 c0.64 0 0.74 -0.08 0.86 -0.86 l1.62 -10.4 c0.14 -0.78 0.06 -0.86 -0.58 -0.86 c0.22 -0.42 0.72 -0.64 1.12 -0.64 c0.24 0 0.46 0.04 0.62 0.12 c0.2 -0.08 0.42 -0.12 0.66 -0.12 c0.4 0 0.84 0.22 0.92 0.64 c-0.64 0 -0.74 0.08 -0.86 0.86 z M58.284000000000006 20.12 c-0.48 0 -0.88 -0.46 -0.88 -1.06 c0 -0.52 0.3 -1.1 0.66 -1.7 l5.78 -10.32 l0.3 0 l2.32 11.54 c0.18 0.82 0.24 0.9 0.9 0.9 c-0.4 0.48 -0.86 0.64 -1.38 0.64 c-1 0 -1.3 -0.92 -1.42 -1.5 l-0.56 -2.82 l-4.32 0 l-1.04 1.86 c-0.28 0.52 -0.48 1.38 0.2 1.38 c0.42 0.38 0.04 1.08 -0.56 1.08 z M60.004000000000005 15.2 l3.86 0 l-1.02 -5.1 z M73.28 18.14 l1.78 -11.02 l0.46 0 l6 9.72 l1.2 -7.78 c0.2 -1.32 0.96 -1.94 1.98 -1.94 c0.42 0 0.86 0.22 0.86 0.7 c0 0.42 -0.34 0.82 -0.7 0.76 c-0.34 -0.68 -1.16 -0.34 -1.3 0.52 l-1.74 11.02 l-0.48 0 l-5.94 -9.58 l-1.28 7.64 c-0.2 1.32 -0.96 1.94 -1.98 1.94 c-0.42 0 -0.86 -0.22 -0.86 -0.7 c0 -0.42 0.34 -0.82 0.7 -0.76 c0.34 0.68 1.16 0.34 1.3 -0.52 z M94.816 19.48 c2.3 0 2.86 -1.14 2.14 -1.6 c0.44 -0.86 1.54 -0.82 1.54 0.06 c0 1.36 -1.84 2.24 -3.72 2.24 c-3.06 0 -5.3 -2.34 -5.3 -5.56 c0 -3.82 3.48 -7.88 7.38 -7.88 c2.5 0 4.02 1.12 4.02 2.6 c0 0.96 -0.54 1.88 -1.56 1.88 c-0.48 0 -1.06 -0.4 -1.12 -1 c0.66 -0.36 0.88 -0.72 0.88 -1.28 c0 -0.64 -0.68 -1.5 -2.22 -1.5 c-3.32 0 -4.64 4.26 -4.64 8.4 c-0.02 2.68 0.9 3.64 2.6 3.64 z M106.872 20.14 c-0.4 0 -0.84 -0.22 -0.92 -0.64 c0.64 0 0.74 -0.08 0.86 -0.86 l1.56 -10.1 c0.14 -0.78 0.06 -0.86 -0.58 -0.86 c0.22 -0.42 0.72 -0.64 1.12 -0.64 c0.24 0 0.5 0.08 0.66 0.22 c0.36 -0.22 1.08 -0.22 3.52 -0.22 l1.12 0 c1.28 0 2.4 1 1.96 2.4 c-0.38 1.06 -1.5 1.42 -2.18 0.68 c0.96 -1.94 -0.3 -2.48 -1.7 -2.48 c-1.46 0 -1.9 0.14 -2.12 1.58 l-0.54 3.54 c1.1 -0.98 3.08 -0.84 3.08 0.38 c0 0.82 -0.94 1.26 -1.44 0.9 c0.16 -1 -0.9 -1.26 -1.78 -0.42 l-0.68 4.34 c-0.22 1.44 0.16 1.58 1.62 1.58 c1.94 0 3.38 -0.54 3.04 -2.48 c0.9 -0.74 1.92 -0.38 1.96 0.68 c0 1.4 -1.44 2.4 -2.72 2.4 l-1.66 0 c-2.44 0 -3.16 0 -3.46 -0.22 c-0.2 0.14 -0.48 0.22 -0.72 0.22 z"/></g><g id="SvgjsG1422" featureKey="KAJiUP-0" transform="matrix(0.71566018535518,0,0,0.71566018535518,119.16983480606912,57.26233033735625)" fill="#fff"><path d="M11.62 19.48 c-0.4 0.48 -0.86 0.64 -1.38 0.64 c-0.92 0 -1.44 -0.86 -1.44 -1.96 c0.06 -2.04 0.44 -4.4 -2.44 -4.4 l-1.66 0 l-0.8 4.88 c-0.14 0.78 -0.06 0.86 0.58 0.86 c-0.22 0.42 -0.72 0.64 -1.12 0.64 c-0.24 0 -0.46 -0.04 -0.62 -0.12 c-0.2 0.08 -0.42 0.12 -0.66 0.12 c-0.4 0 -0.84 -0.22 -0.92 -0.64 c0.64 0 0.74 -0.08 0.86 -0.86 l1.56 -10.1 c0.14 -0.78 0.06 -0.86 -0.58 -0.86 c0.22 -0.42 0.72 -0.64 1.12 -0.64 c0.24 0 0.5 0.08 0.66 0.22 c0.36 -0.22 0.16 -0.22 2.6 -0.22 c3.36 -0.02 4.98 0.94 4.98 2.78 c0 1.98 -1.44 3.24 -3.36 3.62 c1.52 0.4 1.92 1.66 1.76 4.36 c-0.08 1.22 0.02 1.68 0.86 1.68 z M4.78 13.16 l1.4 0 c2.08 0 3.74 -1.38 3.74 -3.3 c0.02 -1.26 -0.78 -2.22 -2.7 -2.22 c-1.08 0 -1.68 0.54 -1.84 1.6 z M18.396 20.14 c-0.4 0 -0.84 -0.22 -0.92 -0.64 c0.64 0 0.74 -0.08 0.86 -0.86 l1.56 -10.1 c0.14 -0.78 0.06 -0.86 -0.58 -0.86 c0.22 -0.42 0.72 -0.64 1.12 -0.64 c0.24 0 0.5 0.08 0.66 0.22 c0.36 -0.22 1.08 -0.22 3.52 -0.22 l1.12 0 c1.28 0 2.4 1 1.96 2.4 c-0.38 1.06 -1.5 1.42 -2.18 0.68 c0.96 -1.94 -0.3 -2.48 -1.7 -2.48 c-1.46 0 -1.9 0.14 -2.12 1.58 l-0.54 3.54 c1.1 -0.98 3.08 -0.84 3.08 0.38 c0 0.82 -0.94 1.26 -1.44 0.9 c0.16 -1 -0.9 -1.26 -1.78 -0.42 l-0.68 4.34 c-0.22 1.44 0.16 1.58 1.62 1.58 c1.94 0 3.38 -0.54 3.04 -2.48 c0.9 -0.74 1.92 -0.38 1.96 0.68 c0 1.4 -1.44 2.4 -2.72 2.4 l-1.66 0 c-2.44 0 -3.16 0 -3.46 -0.22 c-0.2 0.14 -0.48 0.22 -0.72 0.22 z M36.372 20.38 c-2.9 0 -4.64 -1.26 -4.64 -2.82 c0 -2.16 2.52 -3 3.06 -1.16 c-1.6 1.6 -0.6 3.38 1.58 3.38 c3.18 0 5.34 -4.36 1.88 -5.34 l-2.42 -0.74 c-1.84 -0.54 -2.62 -1.28 -2.64 -2.5 c0 -2.44 2.38 -4.58 5.1 -4.58 c2.1 0 3.38 0.8 3.4 2.08 c0 1.68 -2.08 2.52 -2.32 0.94 c1.6 -1.1 0.54 -2.42 -1.1 -2.42 c-2.64 0 -4.98 3.1 -2.12 3.96 l3.56 1.08 c1.54 0.5 2.32 1.42 2.32 2.74 c0 2.84 -2.66 5.38 -5.66 5.38 z M49.348000000000006 20.14 c-0.4 0 -0.84 -0.22 -0.92 -0.64 c0.64 0 0.74 -0.08 0.86 -0.86 l1.52 -9.66 c0.14 -0.92 0.02 -1.38 -0.6 -1.42 c-1.32 -0.12 -2.58 0.86 -2 2.16 c-0.78 0.94 -2.24 0.24 -2.26 -0.78 c0 -1.28 1.46 -1.96 2.78 -1.98 c1.9 0 2.96 0.14 3.28 0.42 c0.4 -0.28 1.56 -0.42 3.4 -0.42 c1.34 0.02 2.24 0.62 2.26 1.52 c0 1.38 -1.98 2.32 -2.58 1.22 c1 -1.32 0.12 -2.22 -1.2 -2.14 c-0.7 0.04 -1.06 0.52 -1.2 1.42 l-1.52 9.66 c-0.12 0.78 -0.06 0.86 0.58 0.86 c-0.22 0.42 -0.72 0.64 -1.12 0.64 c-0.24 0 -0.46 -0.04 -0.62 -0.12 c-0.2 0.08 -0.42 0.12 -0.66 0.12 z M66.90400000000001 20.2 c-3.08 0 -5.34 -2.4 -5.32 -5.66 c0 -4 3.48 -7.82 7.4 -7.82 c3.1 0 5.38 2.44 5.34 5.74 c0 3.88 -3.46 7.74 -7.42 7.74 z M66.924 19.48 c3.38 0 4.66 -4.28 4.66 -8.46 c0 -2.6 -0.74 -3.58 -2.62 -3.58 c-3.32 0 -4.64 4.26 -4.64 8.4 c-0.02 2.68 0.7 3.64 2.6 3.64 z M89.86000000000001 19.48 c-0.4 0.48 -0.86 0.64 -1.38 0.64 c-0.92 0 -1.44 -0.86 -1.44 -1.96 c0.06 -2.04 0.44 -4.4 -2.44 -4.4 l-1.66 0 l-0.8 4.88 c-0.14 0.78 -0.06 0.86 0.58 0.86 c-0.22 0.42 -0.72 0.64 -1.12 0.64 c-0.24 0 -0.46 -0.04 -0.62 -0.12 c-0.2 0.08 -0.42 0.12 -0.66 0.12 c-0.4 0 -0.84 -0.22 -0.92 -0.64 c0.64 0 0.74 -0.08 0.86 -0.86 l1.56 -10.1 c0.14 -0.78 0.06 -0.86 -0.58 -0.86 c0.22 -0.42 0.72 -0.64 1.12 -0.64 c0.24 0 0.5 0.08 0.66 0.22 c0.36 -0.22 0.16 -0.22 2.6 -0.22 c3.36 -0.02 4.98 0.94 4.98 2.78 c0 1.98 -1.44 3.24 -3.36 3.62 c1.52 0.4 1.92 1.66 1.76 4.36 c-0.08 1.22 0.02 1.68 0.86 1.68 z M83.02000000000001 13.16 l1.4 0 c2.08 0 3.74 -1.38 3.74 -3.3 c0.02 -1.26 -0.78 -2.22 -2.7 -2.22 c-1.08 0 -1.68 0.54 -1.84 1.6 z M95.436 20.12 c-0.48 0 -0.88 -0.46 -0.88 -1.06 c0 -0.52 0.3 -1.1 0.66 -1.7 l5.78 -10.32 l0.3 0 l2.32 11.54 c0.18 0.82 0.24 0.9 0.9 0.9 c-0.4 0.48 -0.86 0.64 -1.38 0.64 c-1 0 -1.3 -0.92 -1.42 -1.5 l-0.56 -2.82 l-4.32 0 l-1.04 1.86 c-0.28 0.52 -0.48 1.38 0.2 1.38 c0.42 0.38 0.04 1.08 -0.56 1.08 z M97.156 15.2 l3.86 0 l-1.02 -5.1 z M111.83200000000002 20.14 c-0.4 0 -0.84 -0.22 -0.92 -0.64 c0.64 0 0.74 -0.08 0.86 -0.86 l1.52 -9.66 c0.14 -0.92 0.02 -1.38 -0.6 -1.42 c-1.32 -0.12 -2.58 0.86 -2 2.16 c-0.78 0.94 -2.24 0.24 -2.26 -0.78 c0 -1.28 1.46 -1.96 2.78 -1.98 c1.9 0 2.96 0.14 3.28 0.42 c0.4 -0.28 1.56 -0.42 3.4 -0.42 c1.34 0.02 2.24 0.62 2.26 1.52 c0 1.38 -1.98 2.32 -2.58 1.22 c1 -1.32 0.12 -2.22 -1.2 -2.14 c-0.7 0.04 -1.06 0.52 -1.2 1.42 l-1.52 9.66 c-0.12 0.78 -0.06 0.86 0.58 0.86 c-0.22 0.42 -0.72 0.64 -1.12 0.64 c-0.24 0 -0.46 -0.04 -0.62 -0.12 c-0.2 0.08 -0.42 0.12 -0.66 0.12 z M129.448 8.24 l-1.62 10.4 c-0.14 0.78 -0.06 0.86 0.58 0.86 c-0.22 0.42 -0.72 0.64 -1.12 0.64 c-0.24 0 -0.46 -0.04 -0.62 -0.12 c-0.2 0.08 -0.42 0.12 -0.66 0.12 c-0.4 0 -0.84 -0.22 -0.92 -0.64 c0.64 0 0.74 -0.08 0.86 -0.86 l1.62 -10.4 c0.14 -0.78 0.06 -0.86 -0.58 -0.86 c0.22 -0.42 0.72 -0.64 1.12 -0.64 c0.24 0 0.46 0.04 0.62 0.12 c0.2 -0.08 0.42 -0.12 0.66 -0.12 c0.4 0 0.84 0.22 0.92 0.64 c-0.64 0 -0.74 0.08 -0.86 0.86 z M140.50400000000002 20.2 c-3.08 0 -5.34 -2.4 -5.32 -5.66 c0 -4 3.48 -7.82 7.4 -7.82 c3.1 0 5.38 2.44 5.34 5.74 c0 3.88 -3.46 7.74 -7.42 7.74 z M140.52400000000003 19.48 c3.38 0 4.66 -4.28 4.66 -8.46 c0 -2.6 -0.74 -3.58 -2.62 -3.58 c-3.32 0 -4.64 4.26 -4.64 8.4 c-0.02 2.68 0.7 3.64 2.6 3.64 z M153.84000000000003 18.14 l1.78 -11.02 l0.46 0 l6 9.72 l1.2 -7.78 c0.2 -1.32 0.96 -1.94 1.98 -1.94 c0.42 0 0.86 0.22 0.86 0.7 c0 0.42 -0.34 0.82 -0.7 0.76 c-0.34 -0.68 -1.16 -0.34 -1.3 0.52 l-1.74 11.02 l-0.48 0 l-5.94 -9.58 l-1.28 7.64 c-0.2 1.32 -0.96 1.94 -1.98 1.94 c-0.42 0 -0.86 -0.22 -0.86 -0.7 c0 -0.42 0.34 -0.82 0.7 -0.76 c0.34 0.68 1.16 0.34 1.3 -0.52 z M183.33200000000002 8.24 l-1.62 10.4 c-0.14 0.78 -0.06 0.86 0.58 0.86 c-0.22 0.42 -0.72 0.64 -1.12 0.64 c-0.24 0 -0.46 -0.04 -0.62 -0.12 c-0.2 0.08 -0.42 0.12 -0.66 0.12 c-0.4 0 -0.84 -0.22 -0.92 -0.64 c0.64 0 0.74 -0.08 0.86 -0.86 l1.62 -10.4 c0.14 -0.78 0.06 -0.86 -0.58 -0.86 c0.22 -0.42 0.72 -0.64 1.12 -0.64 c0.24 0 0.46 0.04 0.62 0.12 c0.2 -0.08 0.42 -0.12 0.66 -0.12 c0.4 0 0.84 0.22 0.92 0.64 c-0.64 0 -0.74 0.08 -0.86 0.86 z M191.06800000000004 18.14 l1.78 -11.02 l0.46 0 l6 9.72 l1.2 -7.78 c0.2 -1.32 0.96 -1.94 1.98 -1.94 c0.42 0 0.86 0.22 0.86 0.7 c0 0.42 -0.34 0.82 -0.7 0.76 c-0.34 -0.68 -1.16 -0.34 -1.3 0.52 l-1.74 11.02 l-0.48 0 l-5.94 -9.58 l-1.28 7.64 c-0.2 1.32 -0.96 1.94 -1.98 1.94 c-0.42 0 -0.86 -0.22 -0.86 -0.7 c0 -0.42 0.34 -0.82 0.7 -0.76 c0.34 0.68 1.16 0.34 1.3 -0.52 z M212.60400000000004 19.48 c2.3 0 2.86 -1.14 2.14 -1.6 c0.44 -0.86 1.54 -0.82 1.54 0.06 c0 1.36 -1.84 2.24 -3.72 2.24 c-3.06 0 -5.3 -2.34 -5.3 -5.56 c0 -3.82 3.48 -7.88 7.38 -7.88 c2.5 0 4.02 1.12 4.02 2.6 c0 0.96 -0.54 1.88 -1.56 1.88 c-0.48 0 -1.06 -0.4 -1.12 -1 c0.66 -0.36 0.88 -0.72 0.88 -1.28 c0 -0.64 -0.68 -1.5 -2.22 -1.5 c-3.32 0 -4.64 4.26 -4.64 8.4 c-0.02 2.68 0.9 3.64 2.6 3.64 z M223.52000000000004 20.34 c-0.6 0 -1 -0.48 -0.92 -1.06 c0.08 -0.56 0.64 -1.04 1.22 -1.04 c0.56 0 0.98 0.48 0.9 1.08 s-0.6 1.02 -1.2 1.02 z"/></g>
			</g>
		</svg>
	